<svg xmlns="http://www.w3.org/2000/svg" viewBox="0 0 64 64">
  <rect width="64" height="64" fill="#0D0D12"/>
  <g fill="#C9A96E" transform="translate(2,2) scale(0.48)">
    <ellipse cx="30" cy="28" rx="7.5" ry="8.5" transform="rotate(-8, 30, 28)"/>
    <path d="M22 36 C19 40 17 48 18 56 C18 62 20 67 22 70 C23 72 26 74 28 74 C30 74 32 73 33 71 C36 67 37 60 36 53 C37 50 38 46 37 42 C36 39 34 37 32 36 Z"/>
    <path d="M22 68 C20 72 19 78 20 84 C21 88 24 90 26 90 L28 90 C28 86 27 80 27 76 Z"/>
    <path d="M30 70 C30 74 30 80 31 84 C31 88 33 90 35 90 L37 90 C36 86 35 78 34 74 Z"/>
    <circle cx="56" cy="17" r="9"/>
    <path d="M46 30 C44 35 43 44 44 52 C45 58 47 63 50 66 C51 68 53 69 56 69 C59 69 61 68 62 66 C65 63 67 58 68 52 C69 44 68 35 66 30 C63 28 60 27 56 27 C52 27 49 28 46 30 Z"/>
    <path d="M50 67 C49 73 48 80 48 86 C48 89 50 91 52 91 L54 91 C54 87 54 79 54 74 Z"/>
    <path d="M60 67 C62 73 63 80 63 86 C63 89 61 91 59 91 L57 91 C57 87 57 79 57 74 Z"/>
    <circle cx="68" cy="8" r="8.5"/>
    <path d="M62 16 C61 19 61 24 62 28 C63 30 65 31 68 31 C71 31 73 30 74 28 C75 24 75 19 74 16 C72 15 70 15 68 15 C66 15 64 15 62 16 Z"/>
    <path d="M63 29 C62 32 61 35 61 38 C61 39 62 40 63 40 L64 40 C65 37 65 33 65 30 Z"/>
    <path d="M73 29 C74 32 75 35 75 38 C75 39 74 40 73 40 L72 40 C71 37 71 33 71 30 Z"/>
  </g>
</svg>
