<svg xmlns="http://www.w3.org/2000/svg" viewBox="0 0 480 120" width="480" height="120" role="img" aria-label="StillHer Foundation — Restoring dignity. One story at a time.">
  <!-- Dark background version: white/gold on dark bg — for use in nav + hero -->
  <defs>
    <style>
      @import url('https://fonts.googleapis.com/css2?family=Cormorant+Garamond:wght@300;600&amp;family=Raleway:ital,wght@1,300&amp;display=swap');
    </style>
  </defs>

  <!-- ═══ SILHOUETTE MARK — off-white ═══ -->
  <g id="mark" fill="#FAFAF7" transform="translate(4, 4) scale(0.85)">
    <ellipse cx="30" cy="28" rx="7.5" ry="8.5" transform="rotate(-8, 30, 28)"/>
    <path d="M22 36 C19 40 17 48 18 56 C18 62 20 67 22 70 C23 72 26 74 28 74 C30 74 32 73 33 71 C36 67 37 60 36 53 C37 50 38 46 37 42 C36 39 34 37 32 36 Z"/>
    <path d="M34 44 C38 42 43 41 47 42 L47 45 C44 44 39 45 35 47 Z"/>
    <path d="M22 68 C20 72 19 78 20 84 C21 88 24 90 26 90 L28 90 C28 86 27 80 27 76 Z"/>
    <path d="M30 70 C30 74 30 80 31 84 C31 88 33 90 35 90 L37 90 C36 86 35 78 34 74 Z"/>
    <circle cx="56" cy="17" r="9"/>
    <rect x="53" y="25" width="6" height="5" rx="2"/>
    <path d="M46 30 C44 35 43 44 44 52 C45 58 47 63 50 66 C51 68 53 69 56 69 C59 69 61 68 62 66 C65 63 67 58 68 52 C69 44 68 35 66 30 C63 28 60 27 56 27 C52 27 49 28 46 30 Z"/>
    <path d="M46 36 C42 38 36 40 32 41 L32 45 C36 44 42 42 46 40 Z"/>
    <path d="M66 32 C69 28 71 22 72 16 L75 17 C74 24 72 30 69 35 Z"/>
    <path d="M50 67 C49 73 48 80 48 86 C48 89 50 91 52 91 L54 91 C54 87 54 79 54 74 Z"/>
    <path d="M60 67 C62 73 63 80 63 86 C63 89 61 91 59 91 L57 91 C57 87 57 79 57 74 Z"/>
    <circle cx="68" cy="8" r="8.5"/>
    <path d="M62 16 C61 19 61 24 62 28 C63 30 65 31 68 31 C71 31 73 30 74 28 C75 24 75 19 74 16 C72 15 70 15 68 15 C66 15 64 15 62 16 Z"/>
    <path d="M63 29 C62 32 61 35 61 38 C61 39 62 40 63 40 L64 40 C65 37 65 33 65 30 Z"/>
    <path d="M73 29 C74 32 75 35 75 38 C75 39 74 40 73 40 L72 40 C71 37 71 33 71 30 Z"/>
    <path d="M61 18 C57 17 53 17 51 19 L51 22 C53 21 57 21 61 22 Z"/>
    <path d="M75 18 C79 17 83 17 85 19 L85 22 C83 21 79 21 75 22 Z"/>
  </g>

  <!-- ═══ WORDMARK — off-white + gold accent ═══ -->
  <g id="wordmark" transform="translate(100, 0)">
    <text
      x="0" y="52"
      font-family="'Cormorant Garamond', Georgia, serif"
      font-weight="600"
      font-size="30"
      fill="#FAFAF7"
      letter-spacing="8"
    >STILLHER</text>
    <line x1="0" y1="62" x2="295" y2="62" stroke="#C9A96E" stroke-width="0.8"/>
    <text
      x="0" y="80"
      font-family="'Cormorant Garamond', Georgia, serif"
      font-weight="300"
      font-size="15"
      fill="#FAFAF7"
      letter-spacing="9"
    >FOUNDATION</text>
    <text
      x="1" y="100"
      font-family="'Raleway', Arial, sans-serif"
      font-weight="300"
      font-size="10"
      fill="rgba(250,250,247,0.55)"
      letter-spacing="1"
      font-style="italic"
    >Restoring dignity. One story at a time.</text>
  </g>
</svg>
